# xmcd
#
# Track frame offsets: 
#        150
#        16090
#        30082
#        43838
#        59784
#        74778
#        87054
#        102201
#        116702
#        134595
#        148958
#        172644
#
# Disc length: 2882 seconds
#
# Revision: 0
# Processed by: cddbd v1.5.2PL0 Copyright (c) Steve Scherf et al.
# Submitted via: ExactAudioCopy v1.3
#
DISCID=a70b400c
DTITLE=Dr. Fry's Texas Medicine Band - Last Date - Disc 1
DYEAR=2017
DGENRE=Country
TTITLE0=Two More Bottles of Wine
TTITLE1=Something
TTITLE2=Memphis
TTITLE3=Don't It Make You Want To Dance
TTITLE4=Bring It On Home To Me
TTITLE5=No Particular Place To Go
TTITLE6=The End Is Not In Sight
TTITLE7=Your Cheatin' Heart
TTITLE8=Listen to the Music
TTITLE9=Last Date
TTITLE10=Summertime
TTITLE11=Black Magic Woman - Oye Como Va
EXTD=
EXTT0=
EXTT1=
EXTT2=
EXTT3=
EXTT4=
EXTT5=
EXTT6=
EXTT7=
EXTT8=
EXTT9=
EXTT10=
EXTT11=
PLAYORDER=
